    <svg xmlns="http://www.w3.org/2000/svg" class="ww hh" radial="">
    <g>
    
    <rect x="0" y="0" width="100%" height="100%" fill="#FFFFFF" fill-opacity="1"></rect>
</g>
    <g transform="matrix(1.1513888888888888 0 0 1.1513888888888888 1.4210854715202004e-14 6.404164632161468)">
        <g>
            <g>
                <g is="lm-picture">
    
    <g transform="matrix(1 0 0 1 40 25)">
        <g transform="matrix(1 0 0 1 27 38)">
    
    <path fill="#2D3352" fill-opacity="1" d="M0,0h1v21H0V0z"></path>
</g><g transform="matrix(0.18999999999999997 0 0 0.19 -0.00009499999999462716 39)">
    
    <path fill="#2D3352" fill-opacity="1" d="M89.86 67.035l-4.73 1.266-.33.569-.1.174-1.856-1.071a7.556 7.556 0 0 1 2.722-1.766c1.544-.57 3.081-.546 4.242.129a1.586 1.586 0 0 0 2.17-.58 1.586 1.586 0 0 0-.582-2.17c-3.965-2.15-8.681-.428-11.358 2.766l-1.434-.828a11.642 11.642 0 0 1 5.3-3.67c2.561-.854 5.268-.754 7.485.53a1.585 1.585 0 0 0 2.172-.58 1.59 1.59 0 0 0-.58-2.17c-5.881-3.303-13.271-.872-17.15 4.289l-2.334-1.347-1.895-2.839 2.594-6.506-6.743 1.898-5.386-4.476-.206 5.204-10.165-5.87 10.177-5.874.208 5.203 5.386-4.48 6.745 1.9-2.598-6.506 1.894-2.836 2.338-1.35c3.877 5.16 11.27 7.592 17.148 4.292a1.593 1.593 0 0 0 .583-2.173 1.592 1.592 0 0 0-2.173-.581c-2.22 1.285-4.925 1.383-7.486.532a11.648 11.648 0 0 1-5.298-3.672l1.434-.828c2.677 3.196 7.393 4.917 11.36 2.77a1.591 1.591 0 0 0-1.59-2.755c-1.158.677-2.696.703-4.242.132a7.527 7.527 0 0 1-2.72-1.767l1.855-1.071.43.743 4.731 1.266 4.244-2.449 1.264-4.729-2.447-4.238-4.73-1.27-4.242 2.45-1.268 4.73.329.57.101.173-1.858 1.072a7.553 7.553 0 0 1-.167-3.24c.278-1.622 1.069-2.942 2.232-3.61a1.587 1.587 0 1 0-1.587-2.75c-3.845 2.36-4.711 7.305-3.284 11.22l-1.434.828a11.642 11.642 0 0 1-.528-6.425c.54-2.645 1.98-4.938 4.2-6.218a1.585 1.585 0 0 0 .586-2.17 1.589 1.589 0 0 0-2.17-.582c-5.802 3.442-7.392 11.058-4.862 16.996l-2.333 1.348-3.405.221-4.34-5.498-1.726 6.788-6.568 2.426 4.402 2.782-8.679 5.01v-8.173l4.611 2.424-1.186-6.905 5.017-4.891-6.933-1.005-1.509-3.057v-2.699c6.408-.78 12.208-5.964 12.29-12.706a1.59 1.59 0 1 0-3.178 0h-.002c.004 2.565-1.261 4.958-3.283 6.75a11.619 11.619 0 0 1-5.827 2.754v-1.657c4.105-.72 7.953-3.943 8.078-8.452a1.59 1.59 0 1 0-3.18 0c.008 1.341-.74 2.687-2.008 3.739a7.564 7.564 0 0 1-2.891 1.473v-2.145h.86l3.462-3.463V3.461L52.466 0h-4.894l-3.463 3.463V8.36l3.46 3.463h.861v2.146a7.552 7.552 0 0 1-2.89-1.474c-1.267-1.053-2.014-2.398-2.008-3.738a1.589 1.589 0 1 0-3.178 0c.123 4.508 3.971 7.732 8.076 8.451v1.657a11.625 11.625 0 0 1-5.829-2.754c-2.02-1.79-3.285-4.184-3.282-6.75a1.589 1.589 0 1 0-3.179 0c.081 6.743 5.883 11.927 12.29 12.706v2.695l-1.51 3.06-6.932 1.008 5.015 4.89-1.184 6.902 4.611-2.424v8.176l-8.71-5.027 4.404-2.782-6.572-2.425-1.727-6.79-4.337 5.5-3.402-.222-2.338-1.35c2.529-5.938.94-13.554-4.858-16.995a1.589 1.589 0 1 0-1.59 2.753c2.224 1.28 3.663 3.573 4.204 6.218a11.624 11.624 0 0 1-.53 6.423l-1.434-.829c1.43-3.915.562-8.858-3.28-11.221a1.59 1.59 0 0 0-1.59 2.753c1.165.664 1.957 1.984 2.234 3.608a7.567 7.567 0 0 1-.17 3.24l-1.857-1.072.43-.744-1.269-4.73-4.242-2.45-4.726 1.27-2.448 4.24 1.266 4.73 4.242 2.449 4.73-1.266.33-.572.1-.173 1.858 1.072a7.555 7.555 0 0 1-2.721 1.766c-1.545.57-3.083.545-4.242-.13a1.589 1.589 0 1 0-1.589 2.752c3.966 2.147 8.682.427 11.357-2.768l1.435.828a11.621 11.621 0 0 1-5.3 3.67c-2.56.855-5.266.754-7.486-.531a1.59 1.59 0 0 0-1.589 2.753c5.88 3.302 13.271.869 17.15-4.29l2.333 1.346 1.895 2.84-2.593 6.506 6.74-1.898 5.386 4.476.207-5.204 10.178 5.876-10.182 5.88-.207-5.204-5.386 4.48-6.744-1.9 2.597 6.506-1.894 2.835-2.337 1.35c-3.88-5.16-11.27-7.59-17.149-4.29a1.59 1.59 0 0 0 1.59 2.752v.002c2.22-1.287 4.924-1.386 7.486-.532a11.623 11.623 0 0 1 5.297 3.67l-1.434.828c-2.676-3.196-7.392-4.917-11.36-2.77a1.591 1.591 0 0 0 1.59 2.755c1.159-.677 2.698-.703 4.243-.132a7.573 7.573 0 0 1 2.72 1.767l-1.856 1.073-.43-.743-4.73-1.267-4.243 2.45-1.265 4.73 2.447 4.237 4.731 1.269 4.24-2.45 1.269-4.728-.33-.571-.101-.174 1.858-1.072a7.538 7.538 0 0 1 .168 3.24c-.278 1.623-1.069 2.942-2.233 3.608a1.589 1.589 0 1 0 1.59 2.753c3.843-2.362 4.71-7.306 3.28-11.221l1.435-.827c.776 2.017.963 4.31.529 6.424-.541 2.645-1.981 4.936-4.203 6.217-.763.44-1.023 1.411-.584 2.17s1.41 1.023 2.173.583c5.798-3.44 7.389-11.057 4.859-16.997l2.334-1.348 3.405-.221 4.338 5.499 1.727-6.787 6.57-2.426-4.404-2.782 8.74-5.047v8.238l-4.611-2.422 1.186 6.904-5.017 4.89 6.933 1.004 1.508 3.058.001 2.7c-6.408.778-12.209 5.964-12.29 12.705a1.591 1.591 0 0 0 3.179 0v.002c-.003-2.566 1.263-4.96 3.284-6.752a11.632 11.632 0 0 1 5.827-2.752v1.655c-4.106.72-7.953 3.944-8.078 8.452a1.59 1.59 0 0 0 3.18 0c-.008-1.34.74-2.685 2.008-3.738a7.534 7.534 0 0 1 2.891-1.474v2.144h-.859l-3.463 3.464v4.9L47.593 100h4.893l3.466-3.462-.003-4.897-3.462-3.464h-.858v-2.144a7.534 7.534 0 0 1 2.891 1.474c1.266 1.053 2.013 2.396 2.009 3.738a1.586 1.586 0 0 0 1.587 1.59c.879 0 1.589-.71 1.589-1.59-.122-4.508-3.97-7.732-8.076-8.452v-1.657a11.629 11.629 0 0 1 5.829 2.757c2.02 1.789 3.286 4.183 3.284 6.747-.002.88.71 1.59 1.587 1.59s1.591-.711 1.591-1.588c-.08-6.743-5.883-11.929-12.29-12.708V75.24l1.51-3.06 6.931-1.008-5.015-4.89.836-4.876 6.546 2.413 1.727 6.791 4.336-5.502 3.402.222 2.34 1.349c-2.531 5.939-.941 13.557 4.857 16.996a1.592 1.592 0 0 0 2.172-.581 1.591 1.591 0 0 0-.583-2.172h.002c-2.224-1.279-3.664-3.573-4.206-6.218a11.644 11.644 0 0 1 .53-6.423l1.435.827c-1.43 3.917-.561 8.86 3.28 11.223a1.59 1.59 0 0 0 1.591-2.754c-1.165-.665-1.957-1.985-2.234-3.609a7.537 7.537 0 0 1 .17-3.24l1.855 1.072-.429.745 1.268 4.73 4.243 2.45 4.728-1.27 2.447-4.237-1.264-4.732-4.246-2.451zm-3.165-42.242l1.959-1.13 2.188.582 1.13 1.962-.583 2.185-1.964 1.133-2.184-.586-1.132-1.958.586-2.188zM65.121 38.555l.552-2.165 1.008 1.28.374.474 2.23-.147-1.243 1.858.228.565.601 1.512-2.152-.603L65 42.756l-.014-.438-.072-1.796-1.52-.957-.372-.237 2.1-.773zm-52.355-9.63l-2.187.585-1.96-1.13-.587-2.186 1.13-1.96 2.185-.587 1.962 1.132.588 2.186-1.131 1.96zm23.846 10.626l-1.52.959-.07 1.792-.018.44-1.719-1.427-2.152.605.604-1.514.224-.56-1.241-1.86 2.229.147.376-.478 1.007-1.279.552 2.167 2.097.774-.37.234zm-23.306 35.62l-1.96 1.132-2.186-.584-1.132-1.96.585-2.186 1.962-1.132 2.187.585 1.13 1.96-.586 2.186zM34.881 61.41l-.552 2.166-1.009-1.28-.374-.474-2.23.146 1.242-1.857-.226-.566-.602-1.511 2.151.603 1.72-1.428.017.438.07 1.795 1.518.957.372.236-2.097.775zM47.287 7.044V4.782l1.6-1.602h2.262l1.602 1.6v2.265l-1.6 1.601h-2.263l-1.601-1.602zm.753 27.769l.377-2.203-1.6-1.561 1.612-.234.597-.087.99-2.005.988 2.005.602.087 1.611.233-1.6 1.561.377 2.202-.388-.203-1.589-.837-1.588.836-.389.206zm4.736 58.14v2.26l-1.6 1.605h-2.264l-1.6-1.6v-2.266l1.599-1.602h2.263l1.602 1.602zM51.63 69.18l-.597.087-.99 2.005-.987-2.005-.603-.087-1.61-.234 1.599-1.562-.376-2.202.386.205 1.59.836 1.59-.836.39-.205-.378 2.204 1.6 1.56-1.614.234zm4.267-7.81l.343-1.995-4.61 2.423V53.62l8.637 4.988-4.37 2.763zm11.144.45l-.376.48-1.008 1.277-.553-2.166-2.095-.774.372-.232 1.519-.96.07-1.794.019-.44 1.718 1.43 2.15-.604-.603 1.513-.224.56 1.243 1.86-2.232-.15zm23.786 13.902l-2.185.587-1.963-1.134-.587-2.184 1.13-1.96 2.188-.587 1.959 1.13.59 2.187-1.132 1.96z
"></path>
</g>
    </g>
</g><g is="lm-text" transform="matrix(0.40322018254340813 0 0 0.40322018254340813 74.74553718850157 72.3015401625396)">
    
    
    <path fill="#2F3556" fill-opacity="1" d="M9.888888888888888,0.27777777777778745C10.166666666666666,0.3333333333333428,10.499999999999998,0.38888888888889905,10.833333333333332,0.5555555555555651C11.166666666666666,0.7222222222222321,11.499999999999998,0.9444444444444544,11.777777777777777,1.222222222222232C12.055555555555554,1.5000000000000098,12.333333333333332,1.888888888888899,12.555555555555554,2.2777777777777874C12.777777777777777,2.6666666666666767,12.833333333333332,3.1111111111111205,12.833333333333332,3.6666666666666767C12.833333333333332,4.333333333333343,12.777777777777777,4.888888888888898,12.555555555555554,5.333333333333343C12.333333333333332,5.7777777777777874,12.055555555555554,6.166666666666677,11.777777777777777,6.50000000000001C11.499999999999998,6.833333333333343,11.166666666666666,7.055555555555565,10.833333333333332,7.222222222222232C10.499999999999998,7.388888888888898,10.166666666666666,7.50000000000001,9.833333333333332,7.6111111111111205C9.499999999999998,7.722222222222232,9.222222222222221,7.7777777777777874,9,7.7777777777777874C8.777777777777777,7.7777777777777874,8.555555555555554,7.833333333333343,8.5,7.833333333333343C8.5,7.833333333333343,6.222222222222221,7.833333333333343,6.222222222222221,7.833333333333343C6.222222222222221,7.833333333333343,6.222222222222221,6.1111111111111205,6.222222222222221,6.1111111111111205C6.222222222222221,6.1111111111111205,8.388888888888888,6.1111111111111205,8.388888888888888,6.1111111111111205C9.055555555555554,6.1111111111111205,9.61111111111111,5.888888888888898,9.999999999999998,5.4444444444444535C10.388888888888888,5.00000000000001,10.555555555555554,4.388888888888898,10.555555555555554,3.6666666666666767C10.555555555555554,2.9444444444444544,10.388888888888888,2.388888888888899,9.999999999999998,1.888888888888899C9.61111111111111,1.388888888888899,9,1.1666666666666767,8.222222222222221,1.1666666666666767C8.222222222222221,1.1666666666666767,6.222222222222221,1.1666666666666767,6.222222222222221,1.1666666666666767C6.222222222222221,1.1666666666666767,6.222222222222221,-0.3888888888888786,6.222222222222221,-0.3888888888888786C6.222222222222221,-0.3888888888888786,7.166666666666665,-0.3888888888888786,7.166666666666665,-0.3888888888888786C7.444444444444443,-0.3888888888888786,7.777777777777777,-0.444444444444434,8.055555555555554,-0.444444444444434C8.333333333333332,-0.444444444444434,8.61111111111111,-0.5555555555555465,8.888888888888888,-0.6666666666666572C9.166666666666664,-0.7777777777777679,9.388888888888888,-0.9999999999999893,9.555555555555554,-1.3333333333333233C9.722222222222221,-1.6666666666666572,9.777777777777777,-2.0555555555555447,9.777777777777777,-2.666666666666657C9.777777777777777,-2.8888888888888786,9.722222222222221,-3.111111111111102,9.666666666666666,-3.3888888888888786C9.61111111111111,-3.666666666666657,9.499999999999998,-3.8333333333333233,9.277777777777777,-4.055555555555545C9.055555555555554,-4.277777777777768,8.833333333333332,-4.499999999999989,8.444444444444443,-4.6111111111111C8.055555555555554,-4.7222222222222126,7.61111111111111,-4.777777777777768,6.999999999999999,-4.777777777777768C6.999999999999999,-4.777777777777768,6.222222222222221,-4.777777777777768,6.222222222222221,-4.777777777777768C6.222222222222221,-4.777777777777768,6.222222222222221,-6.555555555555545,6.222222222222221,-6.555555555555545C6.222222222222221,-6.555555555555545,7.222222222222221,-6.555555555555545,7.222222222222221,-6.555555555555545C7.833333333333332,-6.555555555555545,8.444444444444443,-6.499999999999989,9,-6.333333333333323C9.555555555555554,-6.166666666666657,10.11111111111111,-5.999999999999989,10.555555555555554,-5.666666666666657C10.999999999999998,-5.333333333333323,11.333333333333332,-4.944444444444434,11.611111111111109,-4.444444444444434C11.888888888888888,-3.944444444444434,11.999999999999998,-3.3333333333333233,11.999999999999998,-2.666666666666657C11.999999999999998,-2.277777777777768,11.888888888888888,-1.8888888888888786,11.777777777777777,-1.5555555555555447C11.666666666666666,-1.2222222222222126,11.499999999999998,-0.8888888888888786,11.277777777777777,-0.6666666666666572C11.055555555555554,-0.444444444444434,10.888888888888888,-0.22222222222221255,10.611111111111109,-0.05555555555554559C10.333333333333332,0.11111111111112137,10.11111111111111,0.2222222222222321,9.888888888888888,0.27777777777778745C9.888888888888888,0.27777777777778745,9.888888888888888,0.27777777777778745,9.888888888888888,0.27777777777778745M3.1111111111111103,-6.555555555555545C3.1111111111111103,-6.555555555555545,5.444444444444444,-6.555555555555545,5.444444444444444,-6.555555555555545C5.444444444444444,-6.555555555555545,5.444444444444444,7.833333333333343,5.444444444444444,7.833333333333343C5.444444444444444,7.833333333333343,3.1111111111111103,7.833333333333343,3.1111111111111103,7.833333333333343C3.1111111111111103,7.833333333333343,3.1111111111111103,-6.555555555555545,3.1111111111111103,-6.555555555555545C3.1111111111111103,-6.555555555555545,3.1111111111111103,-6.555555555555545,3.1111111111111103,-6.555555555555545M21.055555555555557,-3.277777777777768C21.77777777777778,-3.2222222222222126,22.444444444444443,-3.0555555555555447,23,-2.7222222222222126C23.555555555555557,-2.3888888888888786,24.055555555555557,-1.9999999999999893,24.444444444444443,-1.4999999999999893C24.833333333333336,-0.9999999999999893,25.166666666666664,-0.3888888888888786,25.38888888888889,0.2222222222222321C25.61111111111111,0.8333333333333428,25.666666666666664,1.5000000000000098,25.666666666666664,2.1666666666666767C25.666666666666664,2.5000000000000098,25.666666666666664,2.7777777777777874,25.61111111111111,3.1111111111111205C25.61111111111111,3.1111111111111205,18.944444444444443,3.1111111111111205,18.944444444444443,3.1111111111111205C18.944444444444443,3.1111111111111205,18.944444444444443,1.388888888888899,18.944444444444443,1.388888888888899C18.944444444444443,1.388888888888899,23.444444444444443,1.388888888888899,23.444444444444443,1.388888888888899C23.444444444444443,1.0555555555555651,23.38888888888889,0.7777777777777874,23.27777777777778,0.4444444444444544C23.166666666666668,0.11111111111112137,23,-0.1666666666666572,22.77777777777778,-0.444444444444434C22.555555555555557,-0.7222222222222126,22.333333333333336,-0.944444444444434,22.055555555555557,-1.1111111111111018C21.77777777777778,-1.277777777777768,21.38888888888889,-1.3888888888888786,21.055555555555557,-1.444444444444434C21.055555555555557,-1.444444444444434,21.055555555555557,-3.277777777777768,21.055555555555557,-3.277777777777768C21.055555555555557,-3.277777777777768,21.055555555555557,-3.277777777777768,21.055555555555557,-3.277777777777768M21,6.00000000000001C21.166666666666668,6.00000000000001,21.333333333333336,6.00000000000001,21.555555555555557,5.9444444444444535C21.77777777777778,5.888888888888898,22,5.888888888888898,22.22222222222222,5.7777777777777874C22.444444444444443,5.666666666666677,22.72222222222222,5.555555555555565,22.944444444444443,5.4444444444444535C23.166666666666668,5.333333333333343,23.38888888888889,5.166666666666677,23.555555555555557,5.00000000000001C23.555555555555557,5.00000000000001,24.444444444444443,6.2777777777777874,24.444444444444443,6.2777777777777874C24,6.833333333333343,23.5,7.222222222222232,22.944444444444443,7.50000000000001C22.38888888888889,7.7777777777777874,21.61111111111111,7.888888888888898,20.72222222222222,7.888888888888898C20,7.888888888888898,19.333333333333336,7.722222222222232,18.72222222222222,7.4444444444444535C18.11111111111111,7.166666666666676,17.555555555555557,6.7777777777777874,17.11111111111111,6.2777777777777874C16.666666666666668,5.7777777777777874,16.333333333333336,5.166666666666677,16.055555555555557,4.50000000000001C15.777777777777779,3.833333333333343,15.666666666666668,3.1111111111111205,15.666666666666668,2.333333333333343C15.666666666666668,1.6111111111111214,15.833333333333334,0.888888888888899,16.055555555555557,0.2222222222222321C16.27777777777778,-0.444444444444434,16.61111111111111,-1.0555555555555465,17.055555555555557,-1.5555555555555447C17.5,-2.0555555555555447,17.944444444444446,-2.444444444444434,18.5,-2.777777777777768C19.055555555555557,-3.111111111111102,19.666666666666668,-3.2222222222222126,20.27777777777778,-3.277777777777768C20.27777777777778,-3.277777777777768,20.27777777777778,-1.444444444444434,20.27777777777778,-1.444444444444434C19.77777777777778,-1.3333333333333233,19.38888888888889,-1.1111111111111018,19.055555555555557,-0.8333333333333233C18.72222222222222,-0.5555555555555465,18.5,-0.22222222222221255,18.333333333333336,0.16666666666667673C18.166666666666668,0.5555555555555651,18.055555555555557,1.0000000000000098,18,1.388888888888899C17.944444444444446,1.7777777777777874,17.88888888888889,2.1111111111111205,17.88888888888889,2.388888888888899C17.88888888888889,2.888888888888899,17.944444444444446,3.388888888888898,18.055555555555557,3.833333333333343C18.166666666666668,4.2777777777777874,18.333333333333336,4.611111111111121,18.61111111111111,4.9444444444444535C18.88888888888889,5.2777777777777874,19.22222222222222,5.555555555555565,19.61111111111111,5.722222222222232C20,5.888888888888898,20.444444444444443,6.00000000000001,21,6.00000000000001C21,6.00000000000001,21,6.00000000000001,21,6.00000000000001M31,-3.166666666666657C31,-3.166666666666657,31.27777777777778,-2.0555555555555447,31.27777777777778,-2.0555555555555447C31.27777777777778,-2.0555555555555447,31.27777777777778,3.944444444444454,31.27777777777778,3.944444444444454C31.27777777777778,3.944444444444454,31.27777777777778,3.944444444444454,31.27777777777778,3.944444444444454C31.27777777777778,3.944444444444454,31.27777777777778,7.833333333333343,31.27777777777778,7.833333333333343C31.27777777777778,7.833333333333343,28.88888888888889,7.833333333333343,28.88888888888889,7.833333333333343C28.88888888888889,7.833333333333343,28.88888888888889,-3.166666666666657,28.88888888888889,-3.166666666666657C28.88888888888889,-3.166666666666657,31,-3.166666666666657,31,-3.166666666666657C31,-3.166666666666657,31,-3.166666666666657,31,-3.166666666666657M32.05555555555556,-2.666666666666657C32.388888888888886,-2.8333333333333233,32.77777777777778,-2.9999999999999893,33.22222222222222,-3.111111111111102C33.666666666666664,-3.2222222222222126,34.33333333333333,-3.277777777777768,35.11111111111111,-3.277777777777768C35.11111111111111,-3.277777777777768,35.11111111111111,-0.7777777777777679,35.11111111111111,-0.7777777777777679C34.72222222222222,-0.8888888888888786,34.27777777777778,-0.9999999999999893,33.77777777777778,-0.9999999999999893C33.5,-0.9999999999999893,33.166666666666664,-0.944444444444434,32.888888888888886,-0.8888888888888786C32.61111111111111,-0.8333333333333233,32.33333333333333,-0.8333333333333233,32.05555555555556,-0.7222222222222126C32.05555555555556,-0.7222222222222126,32.05555555555556,-2.666666666666657,32.05555555555556,-2.666666666666657C32.05555555555556,-2.666666666666657,32.05555555555556,-2.666666666666657,32.05555555555556,-2.666666666666657M39.666666666666664,-3.166666666666657C39.666666666666664,-3.166666666666657,39.94444444444444,-2.0555555555555447,39.94444444444444,-2.0555555555555447C39.94444444444444,-2.0555555555555447,39.94444444444444,3.944444444444454,39.94444444444444,3.944444444444454C39.94444444444444,3.944444444444454,39.94444444444444,3.944444444444454,39.94444444444444,3.944444444444454C39.94444444444444,3.944444444444454,39.94444444444444,7.833333333333343,39.94444444444444,7.833333333333343C39.94444444444444,7.833333333333343,37.55555555555555,7.833333333333343,37.55555555555555,7.833333333333343C37.55555555555555,7.833333333333343,37.55555555555555,-3.166666666666657,37.55555555555555,-3.166666666666657C37.55555555555555,-3.166666666666657,39.666666666666664,-3.166666666666657,39.666666666666664,-3.166666666666657C39.666666666666664,-3.166666666666657,39.666666666666664,-3.166666666666657,39.666666666666664,-3.166666666666657M40.72222222222222,-2.666666666666657C41.05555555555555,-2.8333333333333233,41.44444444444444,-2.9999999999999893,41.888888888888886,-3.111111111111102C42.33333333333333,-3.2222222222222126,43,-3.277777777777768,43.77777777777777,-3.277777777777768C43.77777777777777,-3.277777777777768,43.77777777777777,-0.7777777777777679,43.77777777777777,-0.7777777777777679C43.388888888888886,-0.8888888888888786,42.94444444444444,-0.9999999999999893,42.44444444444444,-0.9999999999999893C42.166666666666664,-0.9999999999999893,41.83333333333333,-0.944444444444434,41.55555555555555,-0.8888888888888786C41.27777777777777,-0.8333333333333233,41,-0.8333333333333233,40.72222222222222,-0.7222222222222126C40.72222222222222,-0.7222222222222126,40.72222222222222,-2.666666666666657,40.72222222222222,-2.666666666666657C40.72222222222222,-2.666666666666657,40.72222222222222,-2.666666666666657,40.72222222222222,-2.666666666666657M56.83333333333333,-3.166666666666657C56.83333333333333,-3.166666666666657,54.944444444444436,1.888888888888899,54.944444444444436,1.888888888888899C54.944444444444436,1.888888888888899,53.49999999999999,5.7777777777777874,53.49999999999999,5.7777777777777874C53.05555555555555,6.888888888888898,52.722222222222214,7.833333333333343,52.388888888888886,8.611111111111121C52.05555555555555,9.388888888888898,51.77777777777777,10.055555555555564,51.49999999999999,10.555555555555564C51.222222222222214,11.055555555555564,50.944444444444436,11.444444444444454,50.722222222222214,11.722222222222232C50.49999999999999,12.000000000000009,50.222222222222214,12.277777777777787,49.99999999999999,12.444444444444454C49.77777777777777,12.611111111111121,49.49999999999999,12.666666666666675,49.222222222222214,12.722222222222232C48.944444444444436,12.777777777777786,48.61111111111111,12.777777777777786,48.222222222222214,12.777777777777786C48.11111111111111,12.777777777777786,47.944444444444436,12.777777777777786,47.77777777777777,12.722222222222232C47.61111111111111,12.666666666666675,47.49999999999999,12.666666666666675,47.33333333333333,12.611111111111121C47.166666666666664,12.555555555555564,47.05555555555555,12.500000000000009,46.944444444444436,12.444444444444454C46.83333333333333,12.388888888888898,46.77777777777777,12.388888888888898,46.722222222222214,12.388888888888898C46.77777777777777,12.166666666666675,46.77777777777777,11.944444444444454,46.83333333333333,11.722222222222232C46.888888888888886,11.555555555555564,46.944444444444436,11.333333333333343,46.99999999999999,11.166666666666675C47.05555555555555,11.000000000000009,47.11111111111111,10.888888888888898,47.11111111111111,10.833333333333343C47.222222222222214,10.833333333333343,47.33333333333333,10.888888888888898,47.55555555555555,10.944444444444454C47.77777777777777,11.000000000000009,47.944444444444436,11.055555555555564,48.05555555555555,11.055555555555564C48.27777777777777,11.055555555555564,48.444444444444436,11.000000000000009,48.61111111111111,11.000000000000009C48.77777777777777,11.000000000000009,48.944444444444436,10.944444444444454,49.05555555555555,10.833333333333343C49.16666666666666,10.722222222222232,49.33333333333333,10.555555555555564,49.444444444444436,10.388888888888898C49.55555555555555,10.222222222222232,49.66666666666666,9.944444444444454,49.83333333333333,9.611111111111121C49.83333333333333,9.611111111111121,50.55555555555555,7.833333333333343,50.55555555555555,7.833333333333343C50.55555555555555,7.833333333333343,54.49999999999999,-3.166666666666657,54.49999999999999,-3.166666666666657C54.49999999999999,-3.166666666666657,56.83333333333333,-3.166666666666657,56.83333333333333,-3.166666666666657C56.83333333333333,-3.166666666666657,56.83333333333333,-3.166666666666657,56.83333333333333,-3.166666666666657M50.16666666666666,6.7777777777777874C50.16666666666666,6.7777777777777874,46.05555555555555,-3.166666666666657,46.05555555555555,-3.166666666666657C46.05555555555555,-3.166666666666657,48.388888888888886,-3.166666666666657,48.388888888888886,-3.166666666666657C48.388888888888886,-3.166666666666657,51.222222222222214,4.222222222222232,51.222222222222214,4.222222222222232C51.222222222222214,4.222222222222232,50.944444444444436,4.888888888888898,50.944444444444436,4.888888888888898C50.944444444444436,4.888888888888898,50.16666666666666,6.7777777777777874,50.16666666666666,6.7777777777777874M72.33333333333333,-6.833333333333323C72.33333333333333,-6.833333333333323,72.33333333333333,4.333333333333343,72.33333333333333,4.333333333333343C72.33333333333333,5.00000000000001,72.16666666666666,5.6111111111111205,71.94444444444444,6.055555555555565C71.72222222222221,6.50000000000001,71.38888888888889,6.888888888888898,70.94444444444444,7.166666666666676C70.5,7.4444444444444535,70.05555555555554,7.666666666666676,69.5,7.7777777777777874C68.94444444444444,7.888888888888898,68.38888888888889,7.9444444444444535,67.83333333333333,7.9444444444444535C67.55555555555554,7.9444444444444535,67.22222222222221,7.888888888888898,66.83333333333333,7.833333333333343C66.44444444444444,7.7777777777777874,66.05555555555554,7.666666666666676,65.66666666666666,7.555555555555565C65.27777777777777,7.4444444444444535,64.83333333333333,7.333333333333343,64.44444444444444,7.166666666666676C64.05555555555554,7.00000000000001,63.77777777777777,6.833333333333343,63.49999999999999,6.6111111111111205C63.49999999999999,6.6111111111111205,64.5,5.055555555555565,64.5,5.055555555555565C64.6111111111111,5.166666666666677,64.83333333333333,5.222222222222232,65.05555555555554,5.333333333333343C65.27777777777777,5.4444444444444535,65.55555555555554,5.50000000000001,65.83333333333333,5.6111111111111205C66.1111111111111,5.722222222222232,66.44444444444444,5.7777777777777874,66.77777777777777,5.833333333333343C67.1111111111111,5.888888888888898,67.33333333333333,5.9444444444444535,67.6111111111111,5.9444444444444535C68.27777777777777,5.9444444444444535,68.88888888888889,5.7777777777777874,69.27777777777777,5.50000000000001C69.66666666666666,5.222222222222232,69.94444444444444,4.7777777777777874,69.94444444444444,4.166666666666677C69.94444444444444,4.166666666666677,69.94444444444444,-6.833333333333323,69.94444444444444,-6.833333333333323C69.94444444444444,-6.833333333333323,72.33333333333333,-6.833333333333323,72.33333333333333,-6.833333333333323C72.33333333333333,-6.833333333333323,72.33333333333333,-6.833333333333323,72.33333333333333,-6.833333333333323M77.61111111111111,4.50000000000001C77.61111111111111,5.111111111111121,77.72222222222223,5.555555555555565,77.94444444444444,5.833333333333343C78.16666666666667,6.1111111111111205,78.55555555555556,6.2777777777777874,79,6.333333333333343C79,6.333333333333343,79,7.888888888888898,79,7.888888888888898C78.94444444444444,7.888888888888898,78.83333333333333,7.9444444444444535,78.72222222222223,7.9444444444444535C78.27777777777777,7.9444444444444535,77.83333333333333,7.888888888888898,77.44444444444444,7.7777777777777874C77.05555555555556,7.666666666666676,76.72222222222223,7.4444444444444535,76.38888888888889,7.166666666666676C76.05555555555556,6.888888888888898,75.83333333333333,6.6111111111111205,75.66666666666667,6.166666666666677C75.5,5.722222222222232,75.38888888888889,5.166666666666677,75.38888888888889,4.555555555555565C75.38888888888889,3.944444444444454,75.5,3.4444444444444544,75.77777777777777,3.0000000000000098C76.05555555555556,2.555555555555565,76.33333333333333,2.222222222222232,76.72222222222223,1.9444444444444544C77.11111111111111,1.6666666666666767,77.61111111111111,1.4444444444444544,78.11111111111111,1.3333333333333428C78.61111111111111,1.222222222222232,79.16666666666667,1.1111111111111214,79.66666666666667,1.1111111111111214C79.66666666666667,1.1111111111111214,80.5,1.1111111111111214,80.5,1.1111111111111214C80.5,1.1111111111111214,80.5,2.5000000000000098,80.5,2.5000000000000098C80.5,2.5000000000000098,80.05555555555556,2.5000000000000098,80.05555555555556,2.5000000000000098C79.77777777777777,2.5000000000000098,79.55555555555556,2.5000000000000098,79.27777777777777,2.555555555555565C79,2.6111111111111205,78.66666666666667,2.722222222222232,78.44444444444444,2.888888888888899C78.22222222222223,3.055555555555565,78,3.222222222222232,77.83333333333333,3.5000000000000098C77.66666666666667,3.7777777777777874,77.61111111111111,4.055555555555565,77.61111111111111,4.50000000000001C77.61111111111111,4.50000000000001,77.61111111111111,4.50000000000001,77.61111111111111,4.50000000000001M83.66666666666667,4.555555555555565C83.66666666666667,4.555555555555565,83.66666666666667,5.055555555555565,83.66666666666667,5.055555555555565C83.66666666666667,5.055555555555565,83.72222222222223,5.4444444444444535,83.77777777777777,5.666666666666677C83.83333333333333,5.888888888888898,83.83333333333333,6.055555555555565,83.94444444444444,6.222222222222232C84.05555555555556,6.388888888888898,84.11111111111111,6.50000000000001,84.27777777777777,6.555555555555565C84.27777777777777,6.555555555555565,83.66666666666667,7.833333333333343,83.66666666666667,7.833333333333343C83.5,7.833333333333343,83.27777777777777,7.7777777777777874,83.11111111111111,7.722222222222232C82.94444444444444,7.666666666666676,82.77777777777777,7.555555555555565,82.61111111111111,7.388888888888898C82.44444444444444,7.222222222222232,82.22222222222223,7.1111111111111205,82.11111111111111,6.9444444444444535C82,6.7777777777777874,81.88888888888889,6.555555555555565,81.83333333333333,6.333333333333343C81.72222222222223,6.666666666666677,81.44444444444444,6.9444444444444535,81.05555555555556,7.222222222222232C80.66666666666667,7.50000000000001,80.22222222222223,7.666666666666676,79.77777777777777,7.7777777777777874C79.77777777777777,7.7777777777777874,79.77777777777777,6.2777777777777874,79.77777777777777,6.2777777777777874C80.11111111111111,6.222222222222232,80.38888888888889,6.055555555555565,80.66666666666667,5.888888888888898C80.94444444444444,5.722222222222232,81.11111111111111,5.50000000000001,81.27777777777777,5.222222222222232C81.27777777777777,5.222222222222232,81.27777777777777,1.1111111111111214,81.27777777777777,1.1111111111111214C81.27777777777777,0.5000000000000098,81.27777777777777,9.769962616701378e-15,81.22222222222223,-0.3888888888888786C81.16666666666667,-0.7777777777777679,81.05555555555556,-1.0555555555555465,80.88888888888889,-1.2222222222222126C80.72222222222223,-1.3888888888888786,80.5,-1.4999999999999893,80.27777777777777,-1.5555555555555447C80.05555555555556,-1.6111111111111018,79.83333333333333,-1.6666666666666572,79.5,-1.6666666666666572C79.22222222222223,-1.6666666666666572,78.94444444444444,-1.6111111111111018,78.66666666666667,-1.5555555555555447C78.38888888888889,-1.4999999999999893,78.22222222222223,-1.3888888888888786,78,-1.277777777777768C77.77777777777777,-1.1666666666666572,77.55555555555556,-1.0555555555555465,77.38888888888889,-0.944444444444434C77.22222222222223,-0.8333333333333233,77.11111111111111,-0.7222222222222126,77.05555555555556,-0.6666666666666572C77.05555555555556,-0.6666666666666572,76.16666666666667,-2.0555555555555447,76.16666666666667,-2.0555555555555447C76.27777777777777,-2.2222222222222126,76.5,-2.277777777777768,76.77777777777777,-2.444444444444434C77.05555555555556,-2.611111111111102,77.33333333333333,-2.777777777777768,77.66666666666667,-2.8888888888888786C78,-2.9999999999999893,78.38888888888889,-3.111111111111102,78.77777777777777,-3.166666666666657C79.16666666666667,-3.2222222222222126,79.55555555555556,-3.277777777777768,80,-3.277777777777768C80.38888888888889,-3.277777777777768,80.72222222222223,-3.2222222222222126,81.11111111111111,-3.166666666666657C81.5,-3.111111111111102,81.83333333333333,-2.944444444444434,82.16666666666667,-2.777777777777768C82.5,-2.611111111111102,82.72222222222223,-2.3333333333333233,82.94444444444444,-1.9999999999999893C83.16666666666667,-1.6666666666666572,83.33333333333333,-1.3333333333333233,83.44444444444444,-0.8888888888888786C83.55555555555556,-0.444444444444434,83.55555555555556,0.05555555555556513,83.61111111111111,0.5000000000000098C83.66666666666667,0.9444444444444544,83.66666666666667,1.4444444444444544,83.66666666666667,1.888888888888899C83.66666666666667,1.888888888888899,83.66666666666667,4.388888888888898,83.66666666666667,4.388888888888898C83.66666666666667,4.388888888888898,83.66666666666667,4.555555555555565,83.66666666666667,4.555555555555565C83.66666666666667,4.555555555555565,83.66666666666667,4.555555555555565,83.66666666666667,4.555555555555565M89.49999999999999,-3.166666666666657C89.49999999999999,-3.166666666666657,89.72222222222221,-2.0555555555555447,89.72222222222221,-2.0555555555555447C89.72222222222221,-2.0555555555555447,89.72222222222221,12.166666666666675,89.72222222222221,12.166666666666675C89.72222222222221,12.166666666666675,87.33333333333333,12.166666666666675,87.33333333333333,12.166666666666675C87.33333333333333,12.166666666666675,87.33333333333333,-3.166666666666657,87.33333333333333,-3.166666666666657C87.33333333333333,-3.166666666666657,89.49999999999999,-3.166666666666657,89.49999999999999,-3.166666666666657C89.49999999999999,-3.166666666666657,89.49999999999999,-3.166666666666657,89.49999999999999,-3.166666666666657M96.99999999999999,0.16666666666667673C97.16666666666666,0.7777777777777874,97.22222222222221,1.4444444444444544,97.22222222222221,2.1666666666666767C97.22222222222221,2.888888888888899,97.1111111111111,3.6111111111111205,96.94444444444443,4.333333333333343C96.77777777777777,5.055555555555565,96.49999999999999,5.6111111111111205,96.16666666666666,6.166666666666677C95.83333333333333,6.722222222222232,95.33333333333333,7.1111111111111205,94.77777777777777,7.4444444444444535C94.22222222222221,7.7777777777777874,93.6111111111111,7.9444444444444535,92.88888888888889,7.9444444444444535C92.44444444444443,7.9444444444444535,91.99999999999999,7.888888888888898,91.6111111111111,7.7777777777777874C91.22222222222221,7.666666666666676,90.83333333333333,7.555555555555565,90.55555555555554,7.388888888888898C90.55555555555554,7.388888888888898,90.55555555555554,5.333333333333343,90.55555555555554,5.333333333333343C90.99999999999999,5.833333333333343,91.49999999999999,6.1111111111111205,92.1111111111111,6.1111111111111205C92.49999999999999,6.1111111111111205,92.83333333333333,6.00000000000001,93.16666666666666,5.7777777777777874C93.49999999999999,5.555555555555565,93.77777777777777,5.333333333333343,93.99999999999999,5.00000000000001C94.22222222222221,4.666666666666677,94.44444444444443,4.2777777777777874,94.55555555555554,3.833333333333343C94.66666666666666,3.388888888888898,94.72222222222221,2.833333333333343,94.72222222222221,2.333333333333343C94.72222222222221,1.8333333333333428,94.66666666666666,1.3333333333333428,94.55555555555554,0.888888888888899C94.44444444444443,0.4444444444444544,94.27777777777777,9.769962616701378e-15,94.05555555555554,-0.33333333333332327C93.83333333333333,-0.6666666666666572,93.6111111111111,-0.944444444444434,93.27777777777777,-1.1666666666666572C92.94444444444443,-1.3888888888888786,92.6111111111111,-1.444444444444434,92.22222222222221,-1.444444444444434C91.88888888888889,-1.444444444444434,91.55555555555554,-1.3888888888888786,91.27777777777777,-1.277777777777768C90.99999999999999,-1.1666666666666572,90.77777777777777,-0.8888888888888786,90.55555555555554,-0.6666666666666572C90.55555555555554,-0.6666666666666572,90.55555555555554,-2.777777777777768,90.55555555555554,-2.777777777777768C90.83333333333333,-2.944444444444434,91.1111111111111,-3.0555555555555447,91.49999999999999,-3.166666666666657C91.88888888888889,-3.277777777777768,92.27777777777777,-3.277777777777768,92.66666666666666,-3.277777777777768C93.1111111111111,-3.277777777777768,93.49999999999999,-3.2222222222222126,93.94444444444443,-3.111111111111102C94.38888888888889,-2.9999999999999893,94.83333333333333,-2.777777777777768,95.22222222222221,-2.4999999999999893C95.6111111111111,-2.2222222222222126,95.94444444444443,-1.8888888888888786,96.27777777777777,-1.444444444444434C96.6111111111111,-0.9999999999999893,96.83333333333333,-0.444444444444434,96.99999999999999,0.16666666666667673C96.99999999999999,0.16666666666667673,96.99999999999999,0.16666666666667673,96.99999999999999,0.16666666666667673M101.77777777777779,4.50000000000001C101.77777777777779,5.111111111111121,101.8888888888889,5.555555555555565,102.11111111111111,5.833333333333343C102.33333333333334,6.1111111111111205,102.72222222222223,6.2777777777777874,103.16666666666667,6.333333333333343C103.16666666666667,6.333333333333343,103.16666666666667,7.888888888888898,103.16666666666667,7.888888888888898C103.11111111111111,7.888888888888898,103,7.9444444444444535,102.8888888888889,7.9444444444444535C102.44444444444444,7.9444444444444535,102,7.888888888888898,101.61111111111111,7.7777777777777874C101.22222222222223,7.666666666666676,100.8888888888889,7.4444444444444535,100.55555555555556,7.166666666666676C100.22222222222223,6.888888888888898,100,6.6111111111111205,99.83333333333334,6.166666666666677C99.66666666666667,5.722222222222232,99.55555555555556,5.166666666666677,99.55555555555556,4.555555555555565C99.55555555555556,3.944444444444454,99.66666666666667,3.4444444444444544,99.94444444444444,3.0000000000000098C100.22222222222223,2.555555555555565,100.5,2.222222222222232,100.8888888888889,1.9444444444444544C101.27777777777779,1.6666666666666767,101.77777777777779,1.4444444444444544,102.27777777777779,1.3333333333333428C102.77777777777779,1.222222222222232,103.33333333333334,1.1111111111111214,103.83333333333334,1.1111111111111214C103.83333333333334,1.1111111111111214,104.66666666666667,1.1111111111111214,104.66666666666667,1.1111111111111214C104.66666666666667,1.1111111111111214,104.66666666666667,2.5000000000000098,104.66666666666667,2.5000000000000098C104.66666666666667,2.5000000000000098,104.22222222222223,2.5000000000000098,104.22222222222223,2.5000000000000098C103.94444444444444,2.5000000000000098,103.72222222222223,2.5000000000000098,103.44444444444444,2.555555555555565C103.16666666666667,2.6111111111111205,102.83333333333334,2.722222222222232,102.61111111111111,2.888888888888899C102.3888888888889,3.055555555555565,102.16666666666667,3.222222222222232,102,3.5000000000000098C101.83333333333334,3.7777777777777874,101.77777777777779,4.055555555555565,101.77777777777779,4.50000000000001C101.77777777777779,4.50000000000001,101.77777777777779,4.50000000000001,101.77777777777779,4.50000000000001M107.83333333333334,4.555555555555565C107.83333333333334,4.555555555555565,107.83333333333334,5.055555555555565,107.83333333333334,5.055555555555565C107.83333333333334,5.055555555555565,107.88888888888889,5.4444444444444535,107.94444444444444,5.666666666666677C108,5.888888888888898,108,6.055555555555565,108.11111111111111,6.222222222222232C108.22222222222223,6.388888888888898,108.27777777777779,6.50000000000001,108.44444444444444,6.555555555555565C108.44444444444444,6.555555555555565,107.83333333333334,7.833333333333343,107.83333333333334,7.833333333333343C107.66666666666667,7.833333333333343,107.44444444444444,7.7777777777777874,107.27777777777779,7.722222222222232C107.11111111111111,7.666666666666676,106.94444444444444,7.555555555555565,106.77777777777779,7.388888888888898C106.61111111111111,7.222222222222232,106.38888888888889,7.1111111111111205,106.27777777777779,6.9444444444444535C106.16666666666667,6.7777777777777874,106.05555555555556,6.555555555555565,106,6.333333333333343C105.88888888888889,6.666666666666677,105.61111111111111,6.9444444444444535,105.22222222222223,7.222222222222232C104.83333333333334,7.50000000000001,104.38888888888889,7.666666666666676,103.94444444444444,7.7777777777777874C103.94444444444444,7.7777777777777874,103.94444444444444,6.2777777777777874,103.94444444444444,6.2777777777777874C104.27777777777779,6.222222222222232,104.55555555555556,6.055555555555565,104.83333333333334,5.888888888888898C105.11111111111111,5.722222222222232,105.27777777777779,5.50000000000001,105.44444444444444,5.222222222222232C105.44444444444444,5.222222222222232,105.44444444444444,1.1111111111111214,105.44444444444444,1.1111111111111214C105.44444444444444,0.5000000000000098,105.44444444444444,9.769962616701378e-15,105.38888888888889,-0.3888888888888786C105.33333333333334,-0.7777777777777679,105.22222222222223,-1.0555555555555465,105.05555555555556,-1.2222222222222126C104.88888888888889,-1.3888888888888786,104.66666666666667,-1.4999999999999893,104.44444444444444,-1.5555555555555447C104.22222222222223,-1.6111111111111018,104,-1.6666666666666572,103.66666666666667,-1.6666666666666572C103.3888888888889,-1.6666666666666572,103.11111111111111,-1.6111111111111018,102.83333333333334,-1.5555555555555447C102.55555555555556,-1.4999999999999893,102.3888888888889,-1.3888888888888786,102.16666666666667,-1.277777777777768C101.94444444444444,-1.1666666666666572,101.72222222222223,-1.0555555555555465,101.55555555555556,-0.944444444444434C101.3888888888889,-0.8333333333333233,101.27777777777779,-0.7222222222222126,101.22222222222223,-0.6666666666666572C101.22222222222223,-0.6666666666666572,100.33333333333334,-2.0555555555555447,100.33333333333334,-2.0555555555555447C100.44444444444444,-2.2222222222222126,100.66666666666667,-2.277777777777768,100.94444444444444,-2.444444444444434C101.22222222222223,-2.611111111111102,101.5,-2.777777777777768,101.83333333333334,-2.8888888888888786C102.16666666666667,-2.9999999999999893,102.55555555555556,-3.111111111111102,102.94444444444444,-3.166666666666657C103.33333333333334,-3.2222222222222126,103.72222222222223,-3.277777777777768,104.16666666666667,-3.277777777777768C104.55555555555556,-3.277777777777768,104.88888888888889,-3.2222222222222126,105.27777777777779,-3.166666666666657C105.66666666666667,-3.111111111111102,106,-2.944444444444434,106.33333333333334,-2.777777777777768C106.66666666666667,-2.611111111111102,106.88888888888889,-2.3333333333333233,107.11111111111111,-1.9999999999999893C107.33333333333334,-1.6666666666666572,107.5,-1.3333333333333233,107.61111111111111,-0.8888888888888786C107.72222222222223,-0.444444444444434,107.72222222222223,0.05555555555556513,107.77777777777779,0.5000000000000098C107.83333333333334,0.9444444444444544,107.83333333333334,1.4444444444444544,107.83333333333334,1.888888888888899C107.83333333333334,1.888888888888899,107.83333333333334,4.388888888888898,107.83333333333334,4.388888888888898C107.83333333333334,4.388888888888898,107.83333333333334,4.555555555555565,107.83333333333334,4.555555555555565C107.83333333333334,4.555555555555565,107.83333333333334,4.555555555555565,107.83333333333334,4.555555555555565M113.6111111111111,-3.166666666666657C113.6111111111111,-3.166666666666657,113.88888888888889,-2.0555555555555447,113.88888888888889,-2.0555555555555447C113.88888888888889,-2.0555555555555447,113.88888888888889,7.833333333333343,113.88888888888889,7.833333333333343C113.88888888888889,7.833333333333343,111.5,7.833333333333343,111.5,7.833333333333343C111.5,7.833333333333343,111.5,-3.166666666666657,111.5,-3.166666666666657C111.5,-3.166666666666657,113.6111111111111,-3.166666666666657,113.6111111111111,-3.166666666666657C113.6111111111111,-3.166666666666657,113.6111111111111,-3.166666666666657,113.6111111111111,-3.166666666666657M119.72222222222221,-1.944444444444434C119.94444444444444,-1.7222222222222126,120.1111111111111,-1.4999999999999893,120.22222222222221,-1.2222222222222126C120.33333333333333,-0.944444444444434,120.44444444444444,-0.6111111111111018,120.5,-0.2777777777777679C120.55555555555554,0.05555555555556513,120.6111111111111,0.3333333333333428,120.6111111111111,0.6666666666666767C120.6111111111111,0.6666666666666767,120.6111111111111,1.6666666666666767,120.6111111111111,1.6666666666666767C120.6111111111111,1.6666666666666767,120.6111111111111,7.4444444444444535,120.6111111111111,7.4444444444444535C120.6111111111111,7.4444444444444535,120.6111111111111,7.833333333333343,120.6111111111111,7.833333333333343C120.6111111111111,7.833333333333343,118.27777777777777,7.833333333333343,118.27777777777777,7.833333333333343C118.27777777777777,7.833333333333343,118.27777777777777,1.8333333333333428,118.27777777777777,1.8333333333333428C118.27777777777777,1.388888888888899,118.22222222222221,0.9444444444444544,118.16666666666666,0.5555555555555651C118.1111111111111,0.16666666666667673,118.1111111111111,-0.1666666666666572,117.94444444444444,-0.49999999999998934C117.77777777777777,-0.8333333333333233,117.55555555555554,-1.0555555555555465,117.33333333333333,-1.2222222222222126C117.1111111111111,-1.3888888888888786,116.72222222222221,-1.4999999999999893,116.27777777777777,-1.4999999999999893C116.1111111111111,-1.4999999999999893,115.88888888888889,-1.444444444444434,115.55555555555556,-1.3888888888888786C115.22222222222221,-1.3333333333333233,114.94444444444444,-1.2222222222222126,114.66666666666666,-1.1111111111111018C114.66666666666666,-1.1111111111111018,114.66666666666666,-2.611111111111102,114.66666666666666,-2.611111111111102C115,-2.777777777777768,115.44444444444444,-2.9999999999999893,115.83333333333333,-3.111111111111102C116.22222222222221,-3.2222222222222126,116.6111111111111,-3.277777777777768,117,-3.277777777777768C117.6111111111111,-3.277777777777768,118.1111111111111,-3.166666666666657,118.5,-2.944444444444434C118.88888888888889,-2.7222222222222126,119.33333333333333,-2.3333333333333233,119.72222222222221,-1.944444444444434C119.72222222222221,-1.944444444444434,119.72222222222221,-1.944444444444434,119.72222222222221,-1.944444444444434M131.72222222222223,-6.555555555555545C131.72222222222223,-6.555555555555545,131.72222222222223,6.055555555555565,131.72222222222223,6.055555555555565C131.72222222222223,6.055555555555565,138.33333333333334,6.055555555555565,138.33333333333334,6.055555555555565C138.33333333333334,6.055555555555565,138.33333333333334,7.833333333333343,138.33333333333334,7.833333333333343C138.33333333333334,7.833333333333343,129.33333333333334,7.833333333333343,129.33333333333334,7.833333333333343C129.33333333333334,7.833333333333343,129.33333333333334,-6.555555555555545,129.33333333333334,-6.555555555555545C129.33333333333334,-6.555555555555545,131.72222222222223,-6.555555555555545,131.72222222222223,-6.555555555555545C131.72222222222223,-6.555555555555545,131.72222222222223,-6.555555555555545,131.72222222222223,-6.555555555555545M143.11111111111111,-6.555555555555545C143.11111111111111,-6.555555555555545,143.11111111111111,6.055555555555565,143.11111111111111,6.055555555555565C143.11111111111111,6.055555555555565,149.72222222222223,6.055555555555565,149.72222222222223,6.055555555555565C149.72222222222223,6.055555555555565,149.72222222222223,7.833333333333343,149.72222222222223,7.833333333333343C149.72222222222223,7.833333333333343,140.72222222222223,7.833333333333343,140.72222222222223,7.833333333333343C140.72222222222223,7.833333333333343,140.72222222222223,-6.555555555555545,140.72222222222223,-6.555555555555545C140.72222222222223,-6.555555555555545,143.11111111111111,-6.555555555555545,143.11111111111111,-6.555555555555545C143.11111111111111,-6.555555555555545,143.11111111111111,-6.555555555555545,143.11111111111111,-6.555555555555545M160.22222222222223,-3.777777777777768C159.94444444444443,-4.111111111111102,159.55555555555554,-4.388888888888879,159.22222222222223,-4.555555555555545C158.88888888888889,-4.7222222222222126,158.55555555555554,-4.833333333333323,158.16666666666666,-4.833333333333323C158.16666666666666,-4.833333333333323,158.16666666666666,-6.777777777777768,158.16666666666666,-6.777777777777768C159.61111111111111,-6.7222222222222126,160.83333333333331,-6.166666666666657,161.83333333333331,-5.2222222222222126C161.83333333333331,-5.2222222222222126,160.22222222222223,-3.777777777777768,160.22222222222223,-3.777777777777768M158.16666666666666,6.00000000000001C158.55555555555554,5.9444444444444535,158.94444444444443,5.833333333333343,159.27777777777777,5.666666666666677C159.61111111111111,5.50000000000001,159.94444444444443,5.2777777777777874,160.22222222222223,4.9444444444444535C160.22222222222223,4.9444444444444535,161.83333333333331,6.388888888888898,161.83333333333331,6.388888888888898C161.33333333333331,6.888888888888898,160.77777777777777,7.222222222222232,160.16666666666666,7.50000000000001C159.55555555555554,7.7777777777777874,158.88888888888889,7.888888888888898,158.16666666666666,7.9444444444444535C158.16666666666666,7.9444444444444535,158.16666666666666,6.00000000000001,158.16666666666666,6.00000000000001C158.16666666666666,6.00000000000001,158.16666666666666,6.00000000000001,158.16666666666666,6.00000000000001M151.83333333333331,0.5555555555555651C151.83333333333331,-0.6111111111111018,151.94444444444443,-1.6111111111111018,152.22222222222223,-2.4999999999999893C152.5,-3.3888888888888786,152.88888888888889,-4.111111111111102,153.38888888888889,-4.7222222222222126C153.88888888888889,-5.333333333333323,154.5,-5.833333333333323,155.16666666666666,-6.166666666666657C155.83333333333331,-6.499999999999989,156.55555555555554,-6.7222222222222126,157.33333333333331,-6.777777777777768C157.33333333333331,-6.777777777777768,157.33333333333331,-4.833333333333323,157.33333333333331,-4.833333333333323C156.88888888888889,-4.777777777777768,156.5,-4.6111111111111,156.11111111111111,-4.388888888888879C155.72222222222223,-4.166666666666657,155.44444444444443,-3.8333333333333233,155.16666666666666,-3.3888888888888786C154.88888888888889,-2.944444444444434,154.61111111111111,-2.444444444444434,154.44444444444443,-1.777777777777768C154.27777777777777,-1.1111111111111018,154.22222222222223,-0.33333333333332327,154.22222222222223,0.5555555555555651C154.22222222222223,1.4444444444444544,154.27777777777777,2.222222222222232,154.44444444444443,2.888888888888899C154.61111111111111,3.555555555555565,154.88888888888889,4.111111111111121,155.16666666666666,4.555555555555565C155.44444444444443,5.00000000000001,155.77777777777777,5.333333333333343,156.16666666666666,5.555555555555565C156.55555555555554,5.7777777777777874,156.88888888888889,5.9444444444444535,157.33333333333331,6.00000000000001C157.33333333333331,6.00000000000001,157.33333333333331,7.888888888888898,157.33333333333331,7.888888888888898C156.55555555555554,7.833333333333343,155.83333333333331,7.666666666666676,155.16666666666666,7.333333333333343C154.5,7.00000000000001,153.88888888888889,6.50000000000001,153.38888888888889,5.888888888888898C152.88888888888889,5.2777777777777874,152.5,4.555555555555565,152.22222222222223,3.6666666666666767C151.94444444444443,2.7777777777777874,151.83333333333331,1.722222222222232,151.83333333333331,0.5555555555555651C151.83333333333331,0.5555555555555651,151.83333333333331,0.5555555555555651,151.83333333333331,0.5555555555555651"></path>
</g>
            </g>
        </g>
    </g>
</svg>

