<!DOCTYPE svg PUBLIC "-//W3C//DTD SVG 20010904//EN" "http://www.w3.org/TR/2001/REC-SVG-20010904/DTD/svg10.dtd">
<svg version="1.0" xmlns="http://www.w3.org/2000/svg" width="490px" height="714px" preserveAspectRatio="xMidYMid meet" id="icon-add-to-cart" viewBox="0 0 22 20">
    <path d="M15.706 16.9826C14.8742 16.9826 14.1973 17.6596 14.1973 18.4913C14.1973 19.3231 14.8742 20 15.706 20C16.5377 20 17.2147 19.3231 17.2147 18.4913C17.2147 17.6596 16.5377 16.9826 15.706 16.9826Z" fill="#02052D"></path>
    <path d="M4.95166 18.4913C4.95166 19.3231 5.62864 20 6.46036 20C7.29209 20 7.96907 19.3231 7.96907 18.4913C7.96907 17.6596 7.29209 16.9826 6.46036 16.9826C5.62864 16.9826 4.95166 17.6596 4.95166 18.4913Z" fill="#02052D"></path>
    <path d="M0.870406 1.74081H3.71373L5.91876 12.3985L4.75822 14.971C4.64217 15.2418 4.66151 15.5513 4.81625 15.8027C4.99033 16.0348 5.26112 16.1896 5.55126 16.1896H16.8859C17.3694 16.1896 17.7563 15.8027 17.7563 15.3191C17.7563 14.8356 17.3694 14.4487 16.8859 14.4487H6.90522L7.38878 13.3656H18.472C18.8395 13.3656 19.1683 13.1335 19.3037 12.7853L22.2824 3.82979V3.86847C22.3211 3.77176 22.3404 3.67505 22.3404 3.57834C22.3404 3.09478 21.9342 2.70793 21.47 2.70793H9.12959C8.64604 2.70793 8.25919 3.09478 8.25919 3.57834C8.25919 4.0619 8.64604 4.44874 9.12959 4.44874H20.2514L17.853 11.6441H7.56286L5.28046 0.715667C5.20309 0.309478 4.83559 0 4.4294 0H0.870406C0.386847 0 0 0.386847 0 0.870406C0 1.35397 0.386847 1.74081 0.870406 1.74081Z" fill="#02052D"></path>
</svg>
