    <svg xmlns="http://www.w3.org/2000/svg" class="ww hh" radial="">
    <g>
    
    <rect x="0" y="0" width="100%" height="100%" fill="#EFECF0" fill-opacity="1"></rect>
</g>
    <g transform="matrix(1.1513888888888888 0 0 1.1513888888888888 1.4210854715202004e-14 6.404164632161468)">
        <g>
            <g>
                <g is="lm-picture">
    
    <g transform="matrix(1 0 0 1 68 36)">
        <g transform="matrix(1 0 0 1 0 0)">
    
    <path fill="#DBB18B" fill-opacity="1" d="M5.2,24.3V5.2h19.2V4H4v20.3H5.2z M38.8,19.6v19.1H19.6v1.2h20.3V19.6H38.8z M8.2,44
	c3.9-2.4,3.8-8.8,2.2-9.2C8.8,34.4,5.7,40.2,8.2,44z M10.3,35.1c0.8,0.2-1.6,6.5-1.6,6.5S9.5,35,10.3,35.1z M16,41.5
	c0.8-3.5-2.8-7-3.9-6.3C11.1,35.9,12.5,40.8,16,41.5z M12.3,35.5c0.5-0.3,2.8,4.5,2.8,4.5S11.8,35.8,12.3,35.5z M4.1,39.9
	c2.3,0,3.9-2.8,3.3-3.3C6.9,36,4,37.6,4.1,39.9z M7.4,36.7C7.6,37,5,39.1,5,39.1S7.1,36.4,7.4,36.7z M9.2,33.6
	C8.8,32,2.4,31.9,0,35.8C3.8,38.4,9.6,35.2,9.2,33.6z M2.3,35.3c0,0,6.4-2.3,6.5-1.6C9.1,34.5,2.3,35.3,2.3,35.3z M8.8,31.8
	c0.7-1.1-2.9-4.7-6.3-3.9C3.2,31.5,8.1,32.9,8.8,31.8z M4.1,29c0,0,4.8,2.2,4.5,2.8C8.2,32.3,4.1,29,4.1,29z M35.8,0
	c-3.9,2.4-3.8,8.8-2.2,9.2C35.2,9.6,38.4,3.8,35.8,0z M33.7,8.9c-0.8-0.2,1.6-6.5,1.6-6.5S34.5,9,33.7,8.9z M28,2.5
	c-0.8,3.5,2.8,7,3.9,6.3C32.9,8.1,31.5,3.2,28,2.5z M31.7,8.5c-0.5,0.3-2.8-4.5-2.8-4.5S32.3,8.2,31.7,8.5z M39.9,4.1
	c-2.3,0-3.9,2.8-3.3,3.3C37.1,8,40,6.4,39.9,4.1z M36.7,7.3C36.4,7,39,4.9,39,4.9S36.9,7.6,36.7,7.3z M34.8,10.4
	c0.4,1.6,6.8,1.7,9.2-2.2C40.2,5.6,34.4,8.8,34.8,10.4z M41.7,8.7c0,0-6.4,2.3-6.5,1.6C34.9,9.5,41.7,8.7,41.7,8.7z M35.2,12.2
	c-0.7,1.1,2.8,4.7,6.3,3.9C40.8,12.5,35.9,11.1,35.2,12.2z M39.9,15c0,0-4.8-2.2-4.5-2.8C35.8,11.7,39.9,15,39.9,15z"></path>
</g><g transform="matrix(0.20000000000000004 0 0 0.20000000000000004 12 12.000000000000007)">
    
    <path fill="#DBB18B" fill-opacity="1" d="M31.99 1.464c-.588.603-.694.784-1.04 1.916-.514 1.705-1.057 4.512-1.299 6.594-.332 2.822-.256 13.28.106 13.838.03.06.257.15.468.196.694.136 4.768 1.72 6.187 2.4 2.414 1.146 3.938 2.232 5.402 3.817 1.84 1.977 2.535 3.486 2.535 5.432 0 1.298-.392 2.55-1.192 3.803-.393.618-.996.92-2.46 1.207-1.675.317-2.384.241-3.908-.423-1.132-.482-1.992-1.222-3.275-2.836-.8-.996-1.66-2.536-2.308-4.12-.559-1.358-1.615-5.975-1.826-8.028-.045-.422-.12-.845-.166-.92-.196-.317-3.561-1.056-8.964-1.977l-3.38-.558-3.56-.03c-4.452-.016-5.524.105-6.49.77-.769.527-.875.739-.905 1.734-.015.62.076.92.619 2.158.905 2.022 1.75 3.546 3.018 5.448 1.554 2.369 6.624 8.45 8.661 10.412l.378.362.95-.393c3.984-1.63 8.043-2.655 10.457-2.655.996 0 3.35.317 4.09.543 2.791.875 4.36 2.731 4.874 5.689.136.77-.03 1.207-.936 2.384-1.87 2.43-4.195 3.124-7.816 2.324-2.913-.634-5.1-1.826-8.828-4.799-.89-.724-1.916-1.584-2.248-1.916l-.634-.619-1.992.996c-1.84.905-7.439 4.104-8.812 5.04-1.78 1.207-3.712 2.807-5.357 4.406L.483 55.485l-.242.936-.241.92.483.71c.453.663.588.769 1.992 1.433 3.425 1.66 6.443 2.595 11.393 3.5 4.225.77 5.824 1.012 7.228 1.057l1.116.03.408-.77c.528-.98 1.946-3.364 2.686-4.496 2.233-3.41 5.387-6.066 8.193-6.866.966-.287 2.58-.302 3.456-.03s2.43 1.177 3.033 1.796c.438.452.483.543.604 1.6.226 2.051-.106 3.5-1.132 4.873-.86 1.147-1.63 1.75-3.44 2.67-2.777 1.42-4.648 1.766-9.975 1.872l-3.576.076-.559 1.207c-.77 1.644-1.177 2.67-2.49 6.398-1.327 3.757-1.358 3.833-1.855 5.975-.483 2.037-.71 3.667-.876 5.734l-.12 1.585.407.845.407.86.906.196c.86.211.92.211 2.022-.045 1.856-.438 4.497-1.328 6.413-2.173 2.46-1.086 7.68-4.029 10.653-6.006 1.434-.95 1.464-1.01 1.223-1.84-.181-.59-.83-4.724-.936-5.856-.12-1.388-.09-3.712.06-4.768.166-1.056.89-3.425 1.283-4.21.347-.679 1.102-1.645 1.675-2.203 1.071-1.011 2.218-1.434 4.21-1.57 1.177-.09 1.222-.075 1.645.242 1.162.89 2.278 2.354 2.64 3.47.287.846.317 2.868.076 3.879-.226.92-1.056 2.882-1.63 3.817-1.282 2.143-4.406 5.327-7.514 7.696-.317.227-.604.453-.664.498-.378.317 3.093 9.99 4.828 13.46.996 1.992 2.249 4.06 3.471 5.674.498.664.785.92 1.358 1.177.392.181.8.332.906.332s.513-.15.905-.332c.558-.256.845-.513 1.358-1.177 1.207-1.6 2.475-3.667 3.44-5.613 1.736-3.471 5.237-13.204 4.86-13.52-.061-.046-.348-.272-.665-.514-1.177-.89-3.847-3.26-4.768-4.195-1.84-1.931-2.867-3.41-3.712-5.432-.694-1.63-.845-2.354-.845-3.818.015-1.433.241-2.293.845-3.214.453-.694 1.418-1.72 2.022-2.188.423-.317.483-.332 1.645-.241 2.505.166 3.787.83 5.16 2.64.65.876.921 1.434 1.419 3.003.92 2.928.98 5.402.196 10.261-.196 1.238-.407 2.46-.483 2.686-.241.83-.196.89 1.223 1.841 2.972 1.977 8.178 4.92 10.653 6.006 1.931.845 4.572 1.735 6.413 2.173 1.102.256 1.162.256 2.022.045l.905-.196.393-.845.407-.845-.105-1.57a36.752 36.752 0 0 0-.876-5.764c-.498-2.158-.528-2.233-1.856-5.975-1.312-3.712-1.72-4.754-2.49-6.398l-.558-1.208-3.576-.075c-5.327-.106-7.198-.453-9.974-1.871-1.811-.92-2.58-1.524-3.44-2.671-1.027-1.358-1.359-2.822-1.133-4.874.121-1.056.166-1.147.604-1.6.604-.618 2.158-1.539 3.033-1.795 3.063-.906 7.122 1.101 10.367 5.145 1.026 1.268 2.821 4.075 3.983 6.263l.408.77 1.116-.031c1.434-.03 3.064-.272 7.485-1.117 4.995-.92 7.696-1.765 11.136-3.44 1.404-.68 1.54-.77 1.992-1.434l.483-.709-.241-.92-.242-.936-1.856-1.796a42.53 42.53 0 0 0-5.357-4.406c-1.373-.935-6.971-4.15-8.812-5.04l-1.992-.996-.634.619c-.332.332-1.358 1.192-2.248 1.916-3.742 2.988-5.9 4.165-8.828 4.799-3.636.785-5.96.106-7.816-2.324-.906-1.177-1.072-1.614-.936-2.384.513-2.973 2.113-4.844 4.874-5.689.755-.241 3.109-.543 4.09-.543 2.399 0 6.473 1.041 10.457 2.656l.95.392.378-.362c2.037-1.962 7.107-8.028 8.661-10.382 1.268-1.901 2.113-3.425 3.018-5.447.543-1.223.634-1.524.619-2.158-.03-.996-.136-1.207-.906-1.736-.98-.663-2.037-.784-6.488-.77l-3.561.031-3.426.513c-5.387.92-8.767 1.66-8.963 1.977-.03.075-.106.483-.166.92-.211 2.038-1.268 6.655-1.826 8.028-1.433 3.456-3.516 6.051-5.613 6.957-1.51.663-2.219.739-3.894.422-1.886-.362-2.308-.664-2.972-2.158-.528-1.177-.68-1.795-.68-2.852 0-1.946.695-3.455 2.536-5.432 1.448-1.57 2.988-2.671 5.342-3.788 1.403-.679 3.923-1.675 5.628-2.233.92-.302 1.071-.392 1.177-.694.06-.181.136-2.867.166-5.945.045-4.693.03-5.9-.15-7.44-.287-2.535-.725-4.753-1.374-6.926-.272-.92-.407-1.147-.98-1.72l-.65-.664-.875.075c-.83.076-.95.136-2.248.996a33.214 33.214 0 0 0-4.98 4.03c-2.339 2.278-7.892 8.917-8.661 10.35l-.227.408.408.574c.694.996 2.474 4.3 3.138 5.824 1.102 2.475 1.464 3.894 1.585 6.278.196 3.712-.996 6.02-3.758 7.394-1.493.74-1.916.74-3.41 0-2.761-1.373-3.953-3.697-3.757-7.394.166-3.26.89-5.342 3.41-9.914.483-.86 1.056-1.841 1.283-2.173l.407-.589-.226-.407c-.77-1.434-6.323-8.073-8.662-10.352a33.214 33.214 0 0 0-4.98-4.029c-1.297-.86-1.433-.92-2.248-.996L32.61.83l-.619.634zm17.4 16.523c-1.222 1.947-2.716 4.874-3.365 6.594-.92 2.43-1.283 5.448-.86 7.334.286 1.343.935 2.55 1.75 3.305.8.709 2.46 1.569 3.063 1.569s2.264-.845 3.064-1.57c2.384-2.172 2.58-6.714.498-11.588-.89-2.083-3.305-6.414-3.562-6.414-.06 0-.332.348-.588.77zm-19.556 6.85c0 .453.694 4.15 1.01 5.463.71 2.777 1.706 5.025 2.988 6.67 1.63 2.113 3.109 3.093 5.025 3.335.936.12 3.154-.347 3.637-.77.271-.241.905-1.539 1.147-2.399.588-2.022-.106-4.18-2.098-6.368-1.901-2.112-4.029-3.425-7.982-4.98-1.585-.618-3.516-1.297-3.682-1.297-.03-.015-.045.15-.045.347zm39.233-.06c-1.645.544-4.467 1.706-5.689 2.31-2.248 1.13-3.561 2.097-4.98 3.681-1.976 2.188-2.67 4.361-2.097 6.368.257.86.875 2.158 1.147 2.4.483.422 2.7.905 3.636.769 1.917-.257 3.396-1.222 5.025-3.335 1.72-2.233 2.716-4.89 3.622-9.718.392-2.067.468-2.761.302-2.761-.06 0-.483.12-.966.286zM28.263 40.275c-.543.06-1.645.271-2.444.483-1.555.392-5.674 1.765-6.368 2.112l-.408.226.8.71c1.328 1.177 3.712 3.033 4.784 3.757 2.006 1.328 3.681 2.067 5.734 2.535 3.47.77 5.719.03 7.5-2.49.724-1.04.769-1.358.301-2.806-.377-1.208-.83-1.932-1.69-2.702-1.117-.995-2.173-1.433-4.33-1.765-1.389-.226-2.325-.241-3.879-.06zm39.234.09c-2.022.347-2.913.74-4 1.72-.86.77-1.312 1.494-1.69 2.701-.437 1.374-.407 1.72.197 2.671 1.675 2.566 4.104 3.41 7.59 2.61 2.098-.482 3.757-1.206 5.825-2.61 1.147-.77 3.651-2.746 4.813-3.787l.68-.619-.423-.211c-.694-.347-4.814-1.72-6.353-2.113-1.524-.392-3.395-.633-4.587-.618-.408.015-1.328.135-2.052.256zM33.74 52.452c-2.46.664-5.282 2.867-7.289 5.674-1.358 1.916-3.636 5.734-3.636 6.111 0 .106 6.383-.03 7.258-.136 2.233-.286 4.104-.845 5.945-1.795 3.124-1.585 4.437-3.803 4.075-6.82-.151-1.268-.091-1.178-1.51-2.159-1.418-.996-3.214-1.313-4.843-.875zm29.123.076c-.77.271-1.75.86-2.535 1.509-.287.241-.347.422-.483 1.358-.287 2.157.257 3.772 1.796 5.296 1.69 1.66 4.783 2.943 8.209 3.38.875.106 7.258.242 7.258.136 0-.377-2.279-4.195-3.637-6.111-1.78-2.49-4.36-4.633-6.61-5.463-1.206-.422-2.912-.483-3.998-.105zm-19.149 7.046c-1.615.332-2.882 1.208-3.878 2.732-.649.996-1.434 3.41-1.645 4.98-.256 2.172.106 6.7.83 9.853l.211.905.513-.407c1.057-.8 3.049-2.565 4.27-3.727 3.019-2.897 4.875-6.413 4.875-9.205 0-1.932-.453-2.927-2.022-4.482l-.845-.845-.755.015c-.392.015-1.101.106-1.554.181zm9.356.65c-1.585 1.554-2.022 2.565-2.022 4.481.015 1.268.12 1.75.77 3.38 1.07 2.686 2.881 4.904 6.594 8.088a81.527 81.527 0 0 0 1.78 1.464l.513.407.211-.905c.71-3.154 1.087-7.666.83-9.854-.196-1.584-.996-3.998-1.644-4.98-.62-.935-1.645-1.9-2.46-2.278-.694-.332-2.188-.634-3.109-.634-.618 0-.648.015-1.463.83z
"></path>
</g>
    </g>
</g><g is="lm-text" transform="matrix(1.1775700514759508 0 0 1.1775700514759508 57.78037407579604 95.04672887225539)">
    
    
    <path fill="#D39760" fill-opacity="1" d="M2.333333333333333,6.666666666666671C2.333333333333333,6.666666666666671,2.333333333333333,-6.333333333333329,2.333333333333333,-6.333333333333329C2.333333333333333,-6.444444444444439,2.388888888888889,-6.55555555555555,2.5,-6.666666666666661C2.611111111111111,-6.7777777777777715,2.7222222222222223,-6.833333333333329,2.833333333333333,-6.833333333333329C2.944444444444444,-6.833333333333329,3.0555555555555554,-6.7777777777777715,3.1666666666666665,-6.666666666666661C3.2777777777777777,-6.55555555555555,3.333333333333333,-6.444444444444439,3.333333333333333,-6.333333333333329C3.333333333333333,-6.333333333333329,3.333333333333333,-0.722222222222217,3.333333333333333,-0.722222222222217C3.7777777777777777,-1.3333333333333286,4.333333333333333,-1.7777777777777732,5,-2.1111111111111054C5.666666666666666,-2.4444444444444393,6.333333333333333,-2.6111111111111054,7.111111111111111,-2.6111111111111054C8.444444444444443,-2.6111111111111054,9.5,-2.1111111111111054,10.444444444444445,-1.1666666666666607C11.388888888888888,-0.222222222222217,11.833333333333332,0.94444444444445,11.833333333333332,2.277777777777783C11.833333333333332,3.611111111111116,11.388888888888888,4.777777777777782,10.444444444444445,5.722222222222227C9.5,6.666666666666671,8.444444444444443,7.166666666666671,7.111111111111111,7.166666666666671C6.333333333333333,7.166666666666671,5.666666666666666,7.000000000000004,5,6.666666666666671C4.333333333333333,6.333333333333338,3.7777777777777777,5.888888888888894,3.333333333333333,5.277777777777782C3.333333333333333,5.277777777777782,3.333333333333333,6.666666666666671,3.333333333333333,6.666666666666671C3.333333333333333,6.777777777777782,3.2777777777777777,6.888888888888894,3.1666666666666665,7.000000000000004C3.0555555555555554,7.111111111111116,2.944444444444444,7.166666666666671,2.833333333333333,7.166666666666671C2.7222222222222223,7.166666666666671,2.611111111111111,7.111111111111116,2.5,7.000000000000004C2.388888888888889,6.888888888888894,2.333333333333333,6.777777777777782,2.333333333333333,6.666666666666671C2.333333333333333,6.666666666666671,2.333333333333333,6.666666666666671,2.333333333333333,6.666666666666671M3.333333333333333,2.111111111111116C3.333333333333333,2.111111111111116,3.333333333333333,2.277777777777783,3.333333333333333,2.277777777777783C3.333333333333333,3.3333333333333384,3.722222222222222,4.277777777777782,4.444444444444445,5.055555555555561C5.166666666666666,5.833333333333338,6.055555555555555,6.166666666666671,7.111111111111111,6.166666666666671C8.166666666666666,6.166666666666671,9.055555555555555,5.833333333333338,9.777777777777777,5.055555555555561C10.5,4.277777777777782,10.833333333333332,3.3888888888888937,10.833333333333332,2.277777777777783C10.833333333333332,1.1666666666666714,10.5,0.277777777777783,9.777777777777777,-0.49999999999999467C9.055555555555555,-1.2777777777777732,8.11111111111111,-1.6666666666666607,7.111111111111111,-1.6666666666666607C6.111111111111111,-1.6666666666666607,5.222222222222222,-1.2777777777777732,4.5,-0.55555555555555C3.7777777777777777,0.1666666666666714,3.388888888888889,1.0555555555555607,3.333333333333333,2.111111111111116C3.333333333333333,2.111111111111116,3.333333333333333,2.111111111111116,3.333333333333333,2.111111111111116M24.333333333333332,1.944444444444449C24.333333333333332,1.944444444444449,24.333333333333332,2.0000000000000053,24.333333333333332,2.0000000000000053C24.333333333333332,2.111111111111116,24.27777777777778,2.277777777777783,24.166666666666664,2.3333333333333384C24.055555555555554,2.3888888888888937,23.944444444444443,2.444444444444449,23.833333333333332,2.444444444444449C23.833333333333332,2.444444444444449,15.777777777777777,2.444444444444449,15.777777777777777,2.444444444444449C15.833333333333332,3.500000000000005,16.22222222222222,4.388888888888894,16.944444444444443,5.111111111111116C17.666666666666664,5.833333333333338,18.61111111111111,6.222222222222227,19.61111111111111,6.222222222222227C20.27777777777778,6.222222222222227,20.833333333333332,6.055555555555561,21.388888888888886,5.722222222222227C21.944444444444443,5.388888888888894,22.388888888888886,5.000000000000005,22.72222222222222,4.44444444444445C22.888888888888886,4.166666666666671,23.11111111111111,4.111111111111116,23.388888888888886,4.277777777777782C23.666666666666664,4.44444444444445,23.72222222222222,4.666666666666671,23.555555555555554,4.944444444444449C23.11111111111111,5.611111111111116,22.555555555555557,6.166666666666671,21.833333333333332,6.555555555555561C21.11111111111111,6.944444444444449,20.444444444444443,7.166666666666671,19.61111111111111,7.166666666666671C18.27777777777778,7.166666666666671,17.166666666666664,6.666666666666671,16.22222222222222,5.722222222222227C15.277777777777777,4.777777777777782,14.833333333333332,3.611111111111116,14.833333333333332,2.277777777777783C14.833333333333332,0.94444444444445,15.277777777777777,-0.222222222222217,16.22222222222222,-1.1666666666666607C17.166666666666664,-2.1111111111111054,18.27777777777778,-2.6111111111111054,19.555555555555554,-2.6111111111111054C20.833333333333332,-2.6111111111111054,21.944444444444443,-2.222222222222216,22.833333333333332,-1.3333333333333286C23.72222222222222,-0.4444444444444393,24.22222222222222,0.6666666666666714,24.333333333333332,1.944444444444449C24.333333333333332,1.944444444444449,24.333333333333332,1.944444444444449,24.333333333333332,1.944444444444449M22,-0.7777777777777724C21.333333333333332,-1.388888888888884,20.444444444444443,-1.6666666666666607,19.555555555555554,-1.6666666666666607C18.666666666666664,-1.6666666666666607,17.833333333333332,-1.388888888888884,17.166666666666664,-0.7777777777777724C16.5,-0.16666666666666163,16,0.5555555555555607,15.833333333333332,1.5000000000000053C15.833333333333332,1.5000000000000053,23.27777777777778,1.5000000000000053,23.27777777777778,1.5000000000000053C23.11111111111111,0.5555555555555607,22.666666666666664,-0.16666666666666163,22,-0.7777777777777724C22,-0.7777777777777724,22,-0.7777777777777724,22,-0.7777777777777724M27.666666666666664,6.666666666666671C27.666666666666664,6.666666666666671,27.666666666666664,-2.1111111111111054,27.666666666666664,-2.1111111111111054C27.666666666666664,-2.222222222222216,27.72222222222222,-2.388888888888884,27.833333333333332,-2.4999999999999947C27.944444444444443,-2.6111111111111054,28.055555555555554,-2.6111111111111054,28.166666666666664,-2.6111111111111054C28.277777777777775,-2.6111111111111054,28.388888888888886,-2.6111111111111054,28.5,-2.4999999999999947C28.61111111111111,-2.388888888888884,28.666666666666664,-2.222222222222216,28.666666666666664,-2.1111111111111054C28.666666666666664,-2.1111111111111054,28.666666666666664,5.329070518200751e-15,28.666666666666664,5.329070518200751e-15C28.72222222222222,-0.11111111111110628,28.72222222222222,-0.16666666666666163,28.777777777777775,-0.222222222222217C29.777777777777775,-1.8333333333333286,31.11111111111111,-2.6111111111111054,32.72222222222222,-2.6111111111111054C32.83333333333333,-2.6111111111111054,32.94444444444444,-2.6111111111111054,33.05555555555556,-2.4999999999999947C33.166666666666664,-2.388888888888884,33.166666666666664,-2.222222222222216,33.166666666666664,-2.1111111111111054C33.166666666666664,-1.9999999999999947,33.166666666666664,-1.888888888888884,33.05555555555556,-1.7777777777777732C32.94444444444444,-1.6666666666666607,32.83333333333333,-1.6666666666666607,32.72222222222222,-1.6666666666666607C31.666666666666664,-1.6666666666666607,30.72222222222222,-1.1111111111111054,29.888888888888886,-0.05555555555555003C29.388888888888886,0.611111111111116,29,1.3333333333333384,28.666666666666664,2.2222222222222276C28.666666666666664,2.2222222222222276,28.666666666666664,2.3888888888888937,28.666666666666664,2.3888888888888937C28.666666666666664,2.3888888888888937,28.666666666666664,6.666666666666671,28.666666666666664,6.666666666666671C28.666666666666664,6.777777777777782,28.61111111111111,6.888888888888894,28.5,7.000000000000004C28.388888888888886,7.111111111111116,28.277777777777775,7.166666666666671,28.166666666666664,7.166666666666671C28.055555555555554,7.166666666666671,27.944444444444443,7.111111111111116,27.833333333333332,7.000000000000004C27.72222222222222,6.888888888888894,27.666666666666664,6.777777777777782,27.666666666666664,6.666666666666671C27.666666666666664,6.666666666666671,27.666666666666664,6.666666666666671,27.666666666666664,6.666666666666671M36.44444444444444,6.666666666666671C36.44444444444444,6.666666666666671,36.44444444444444,-2.1111111111111054,36.44444444444444,-2.1111111111111054C36.44444444444444,-2.222222222222216,36.49999999999999,-2.388888888888884,36.61111111111111,-2.4999999999999947C36.72222222222222,-2.6111111111111054,36.83333333333333,-2.6111111111111054,36.94444444444444,-2.6111111111111054C37.05555555555555,-2.6111111111111054,37.166666666666664,-2.6111111111111054,37.27777777777777,-2.4999999999999947C37.388888888888886,-2.388888888888884,37.44444444444444,-2.222222222222216,37.44444444444444,-2.1111111111111054C37.44444444444444,-2.1111111111111054,37.44444444444444,5.329070518200751e-15,37.44444444444444,5.329070518200751e-15C37.49999999999999,-0.11111111111110628,37.49999999999999,-0.16666666666666163,37.55555555555555,-0.222222222222217C38.55555555555555,-1.8333333333333286,39.888888888888886,-2.6111111111111054,41.49999999999999,-2.6111111111111054C41.61111111111111,-2.6111111111111054,41.722222222222214,-2.6111111111111054,41.83333333333333,-2.4999999999999947C41.94444444444444,-2.388888888888884,41.94444444444444,-2.222222222222216,41.94444444444444,-2.1111111111111054C41.94444444444444,-1.9999999999999947,41.94444444444444,-1.888888888888884,41.83333333333333,-1.7777777777777732C41.722222222222214,-1.6666666666666607,41.61111111111111,-1.6666666666666607,41.49999999999999,-1.6666666666666607C40.44444444444444,-1.6666666666666607,39.49999999999999,-1.1111111111111054,38.666666666666664,-0.05555555555555003C38.166666666666664,0.611111111111116,37.77777777777777,1.3333333333333384,37.44444444444444,2.2222222222222276C37.44444444444444,2.2222222222222276,37.44444444444444,2.3888888888888937,37.44444444444444,2.3888888888888937C37.44444444444444,2.3888888888888937,37.44444444444444,6.666666666666671,37.44444444444444,6.666666666666671C37.44444444444444,6.777777777777782,37.388888888888886,6.888888888888894,37.27777777777777,7.000000000000004C37.166666666666664,7.111111111111116,37.05555555555555,7.166666666666671,36.94444444444444,7.166666666666671C36.83333333333333,7.166666666666671,36.72222222222222,7.111111111111116,36.61111111111111,7.000000000000004C36.49999999999999,6.888888888888894,36.44444444444444,6.777777777777782,36.44444444444444,6.666666666666671C36.44444444444444,6.666666666666671,36.44444444444444,6.666666666666671,36.44444444444444,6.666666666666671M51.94444444444444,-2.6111111111111054C52.222222222222214,-2.55555555555555,52.388888888888886,-2.388888888888884,52.388888888888886,-2.1666666666666607C52.388888888888886,-2.1666666666666607,52.388888888888886,6.388888888888894,52.388888888888886,6.388888888888894C52.388888888888886,7.666666666666671,51.94444444444444,8.777777777777782,51.05555555555555,9.666666666666671C50.166666666666664,10.55555555555556,49,11.000000000000004,47.72222222222222,11.000000000000004C47.05555555555555,11.000000000000004,46.388888888888886,10.833333333333337,45.72222222222222,10.500000000000004C45.44444444444444,10.333333333333337,45.388888888888886,10.111111111111116,45.5,9.888888888888893C45.61111111111111,9.666666666666671,45.83333333333333,9.611111111111116,46.11111111111111,9.666666666666671C46.61111111111111,9.94444444444445,47.166666666666664,10.000000000000004,47.72222222222222,10.000000000000004C48.72222222222222,10.000000000000004,49.61111111111111,9.666666666666671,50.33333333333333,8.94444444444445C51.05555555555555,8.222222222222227,51.44444444444444,7.388888888888894,51.44444444444444,6.388888888888894C51.44444444444444,6.388888888888894,51.44444444444444,5.722222222222227,51.44444444444444,5.722222222222227C50.61111111111111,6.666666666666671,49.61111111111111,7.111111111111116,48.44444444444444,7.111111111111116C47.27777777777777,7.111111111111116,46.388888888888886,6.722222222222227,45.61111111111111,5.944444444444449C44.83333333333333,5.166666666666671,44.44444444444444,4.277777777777782,44.44444444444444,3.1666666666666714C44.44444444444444,3.1666666666666714,44.44444444444444,-2.1666666666666607,44.44444444444444,-2.1666666666666607C44.44444444444444,-2.2777777777777732,44.44444444444444,-2.388888888888884,44.55555555555555,-2.4999999999999947C44.666666666666664,-2.6111111111111054,44.77777777777777,-2.6111111111111054,44.888888888888886,-2.6111111111111054C45,-2.6111111111111054,45.11111111111111,-2.6111111111111054,45.22222222222222,-2.4999999999999947C45.33333333333333,-2.388888888888884,45.388888888888886,-2.2777777777777732,45.388888888888886,-2.1666666666666607C45.388888888888886,-2.1666666666666607,45.388888888888886,3.1666666666666714,45.388888888888886,3.1666666666666714C45.388888888888886,4.000000000000005,45.666666666666664,4.666666666666671,46.27777777777777,5.277777777777782C46.888888888888886,5.888888888888894,47.55555555555555,6.166666666666671,48.388888888888886,6.166666666666671C49.22222222222222,6.166666666666671,49.94444444444444,5.888888888888894,50.55555555555555,5.277777777777782C51.166666666666664,4.666666666666671,51.44444444444444,4.000000000000005,51.44444444444444,3.1666666666666714C51.44444444444444,3.1666666666666714,51.44444444444444,-2.1666666666666607,51.44444444444444,-2.1666666666666607C51.44444444444444,-2.1666666666666607,51.44444444444444,-2.388888888888884,51.44444444444444,-2.388888888888884C51.44444444444444,-2.388888888888884,51.55555555555555,-2.4444444444444393,51.55555555555555,-2.4444444444444393C51.55555555555555,-2.4444444444444393,51.55555555555555,-2.4999999999999947,51.55555555555555,-2.4999999999999947C51.55555555555555,-2.55555555555555,51.61111111111111,-2.55555555555555,51.722222222222214,-2.6111111111111054C51.722222222222214,-2.6111111111111054,51.77777777777777,-2.6111111111111054,51.77777777777777,-2.6111111111111054C51.77777777777777,-2.6111111111111054,51.83333333333333,-2.6111111111111054,51.83333333333333,-2.6111111111111054C51.83333333333333,-2.6111111111111054,51.94444444444444,-2.6111111111111054,51.94444444444444,-2.6111111111111054C51.94444444444444,-2.6111111111111054,51.94444444444444,-2.6111111111111054,51.94444444444444,-2.6111111111111054"></path>
</g>
            </g>
        </g>
    </g>
</svg>
